<svg width="25" height="25" viewBox="0 0 25 25" fill="none" xmlns="http://www.w3.org/2000/svg">
<path fill-rule="evenodd" clip-rule="evenodd" d="M8.5 14.875C7.27337 14.875 6.09699 15.3623 5.22963 16.2296C4.36228 17.097 3.875 18.2734 3.875 19.5V21.5C3.875 21.8452 4.15482 22.125 4.5 22.125H20.5C20.8452 22.125 21.125 21.8452 21.125 21.5V19.5C21.125 18.2734 20.6377 17.097 19.7704 16.2296C18.903 15.3623 17.7266 14.875 16.5 14.875H8.5ZM19.875 20.875V19.5C19.875 18.6049 19.5194 17.7465 18.8865 17.1135C18.2535 16.4806 17.3951 16.125 16.5 16.125H8.5C7.60489 16.125 6.74645 16.4806 6.11351 17.1135C5.48058 17.7465 5.125 18.6049 5.125 19.5V20.875H19.875Z" fill="#383838"/>
<path d="M12.5 11.5C14.7091 11.5 16.5 9.70914 16.5 7.5C16.5 5.29086 14.7091 3.5 12.5 3.5C10.2909 3.5 8.5 5.29086 8.5 7.5C8.5 9.70914 10.2909 11.5 12.5 11.5Z" stroke="#383838" stroke-width="1.25" stroke-linecap="round" stroke-linejoin="round"/>
</svg>
