<svg width="23" height="23" viewBox="0 0 23 23" fill="none" xmlns="http://www.w3.org/2000/svg">
<path d="M21.5 16.4201V19.4201C21.5011 19.6986 21.4441 19.9743 21.3325 20.2294C21.2209 20.4846 21.0573 20.7137 20.8521 20.902C20.6468 21.0902 20.4046 21.2336 20.1407 21.3228C19.8769 21.412 19.5974 21.4452 19.32 21.4201C16.2428 21.0857 13.287 20.0342 10.69 18.3501C8.27382 16.8148 6.22533 14.7663 4.68999 12.3501C2.99997 9.7413 1.94824 6.77109 1.61999 3.6801C1.595 3.40356 1.62787 3.12486 1.71649 2.86172C1.80512 2.59859 1.94756 2.35679 2.13476 2.15172C2.32196 1.94665 2.5498 1.78281 2.80379 1.67062C3.05777 1.55843 3.33233 1.50036 3.60999 1.5001H6.60999C7.0953 1.49532 7.56579 1.66718 7.93376 1.98363C8.30173 2.30008 8.54207 2.73954 8.60999 3.2201C8.73662 4.18016 8.97144 5.12282 9.30999 6.0301C9.44454 6.38802 9.47366 6.77701 9.3939 7.15098C9.31415 7.52494 9.12886 7.86821 8.85999 8.1401L7.58999 9.4101C9.01355 11.9136 11.0864 13.9865 13.59 15.4101L14.86 14.1401C15.1319 13.8712 15.4751 13.6859 15.8491 13.6062C16.2231 13.5264 16.6121 13.5556 16.97 13.6901C17.8773 14.0286 18.8199 14.2635 19.78 14.3901C20.2658 14.4586 20.7094 14.7033 21.0265 15.0776C21.3437 15.4519 21.5122 15.9297 21.5 16.4201Z" stroke="#383838" stroke-width="1.25" stroke-linecap="round" stroke-linejoin="round"/>
</svg>
